<svg data-v-0dd9719b="" version="1.0" xmlns="http://www.w3.org/2000/svg" xmlns:xlink="http://www.w3.org/1999/xlink" width="100%" height="100%" viewBox="30 70 270.000000 110.000000" preserveAspectRatio="xMidYMid meet" color-interpolation-filters="sRGB" style="margin: auto;">

  <rect data-v-0dd9719b="" x="30" y="70" width="100%" height="100%" fill="#000000" fill-opacity="1" class="watermarklayer"/>
  <g data-v-0dd9719b="" fill="#ffffff" class="bordersvg b-d1" transform="translate(40.93499755859375,83.59000015258789)">
    <polyline stroke="#ffffff" stroke-width="3" fill-opacity="0" fill="#020e27" points="134.06500244140625,30 134.06500244140625,10 10,10 10,82.81999969482422 134.06500244140625,82.81999969482422 134.06500244140625,62.81999969482422"/>
    <polyline stroke="#ffffff" stroke-width="3" fill-opacity="0" fill="#020e27" points="124.06500244140625,10 124.06500244140625,0 0,0 0,72.81999969482422 10,72.81999969482422"/>
    <g transform="translate(10,30)">
      <g>
        <rect data-gra="graph-name-bg" stroke-width="2" class="i-icon-bg" x="0" y="0" width="248.1300048828125" height="32.81999969482422" fill-opacity="0"/>
      </g>
      <g transform="translate(10,3)">
        <g data-gra="path-name" fill-rule="" class="tp-name">
          <g transform="scale(1)">
            <g>
              <path d="M13.35-26.82L13.35-26.82 24.07-26.82Q25.77-26.82 26.91-24.82L26.91-24.82Q27.12-24.2 27.12-23.86L27.12-23.86 27.12-23.12Q27.12-21.51 25.1-20.42L25.1-20.42Q24.44-20.16 23.86-20.16L23.86-20.16 14.85-20.16Q9.5-20.16 7.14-15.67L7.14-15.67Q6.73-14.44 6.73-13.3L6.73-13.3Q6.73-9.65 10.88-7.44L10.88-7.44Q12.72-6.66 14.42-6.66L14.42-6.66 23.55-6.66Q26.16-6.66 27.06-4.17L27.06-4.17 27.12-3.65 27.12-2.9Q27.12-1.35 25.19-0.26L25.19-0.26Q24.65 0 24.18 0L24.18 0 13.02 0Q8.62 0 4.38-3.53L4.38-3.53Q1.96-5.98 1.44-7.39L1.44-7.39Q0-10.25 0-12.89L0-12.89 0-13.88Q0-18.66 4-22.91L4-22.91Q8.3-26.82 13.35-26.82ZM32.13-26.82L32.13-26.82 48.1-26.82Q51.52-26.82 54.4-23.6L54.4-23.6Q56.11-21.15 56.11-19L56.11-19 56.11-17.9Q56.11-14.63 52.85-11.76L52.85-11.76Q50.87-10.49 49.69-10.29L49.69-10.29 49.69-10.25Q53.84-6.56 55.15-5.12L55.15-5.12Q55.73-4.15 55.73-3.27L55.73-3.27Q55.73-1.16 53.38-0.11L53.38-0.11Q52.91 0 52.68 0L52.68 0 51.94 0Q50.63 0 48.48-2.32L48.48-2.32Q47.73-2.94 39.99-10.08L39.99-10.08 35.72-10.08 35.72-3.22Q35.72-1.03 33.2-0.06L33.2-0.06Q32.92 0 32.73 0L32.73 0 31.98 0Q30.28 0 29.19-2.06L29.19-2.06Q28.99-2.6 28.99-3.01L28.99-3.01 28.99-23.7Q28.99-25.73 31.38-26.71L31.38-26.71Q31.79-26.82 32.13-26.82ZM49.37-20.16L35.72-20.16 35.72-16.68 49.37-16.68 49.37-20.16ZM61.12-26.82L61.12-26.82 82.05-26.82Q83.77-26.82 84.89-24.82L84.89-24.82Q85.1-24.2 85.1-23.86L85.1-23.86 85.1-23.12Q85.1-21.51 83.08-20.42L83.08-20.42Q82.42-20.16 81.84-20.16L81.84-20.16 64.71-20.16 64.71-16.74 77.95-16.74Q80.48-16.74 81.35-14.74L81.35-14.74Q81.62-14.16 81.62-13.67L81.62-13.67 81.62-13.2Q81.62-11.17 79.22-10.19L79.22-10.19Q78.83-10.08 78.47-10.08L78.47-10.08 64.71-10.08 64.71-6.66 81.47-6.66Q84.42-6.66 85.1-3.8L85.1-3.8 85.1-2.9Q85.1-1.35 83.17-0.26L83.17-0.26Q82.63 0 82.16 0L82.16 0 60.97 0Q59.27 0 58.18-2.06L58.18-2.06Q57.98-2.6 57.98-3.01L57.98-3.01 57.98-23.7Q57.98-25.73 60.37-26.71L60.37-26.71Q60.78-26.82 61.12-26.82ZM100.28-26.82L100.28-26.82 100.86-26.82Q102.94-26.82 104.21-23.51L104.21-23.51Q113.8-4.6 114.08-3.85L114.08-3.85 114.08-2.84Q114.08-1.14 111.84-0.11L111.84-0.11Q111.35 0 111.05 0L111.05 0 110.57 0Q108.47 0 107.18-3.42L107.18-3.42Q100.58-16.48 100.49-16.55L100.49-16.55Q93.1-1.7 92.69-1.1L92.69-1.1Q91.58 0 90.41 0L90.41 0 89.94 0Q88.24 0 87.13-2.06L87.13-2.06Q86.97-2.66 86.97-3.01L86.97-3.01 86.97-3.42Q86.97-4.17 88.87-7.74L88.87-7.74 97.89-25.55Q98.95-26.82 100.28-26.82ZM119.1-26.82L119.1-26.82 140.02-26.82Q141.74-26.82 142.87-24.82L142.87-24.82Q143.07-24.2 143.07-23.86L143.07-23.86 143.07-23.12Q143.07-21.51 141.05-20.42L141.05-20.42Q140.4-20.16 139.82-20.16L139.82-20.16 132.88-20.16 132.88-3.12Q132.88-1.05 130.43-0.06L130.43-0.06 129.89 0 129.14 0Q127.51 0 126.41-2L126.41-2Q126.15-2.66 126.15-3.22L126.15-3.22 126.15-20.16 119.38-20.16Q117-20.16 116.07-22.54L116.07-22.54Q115.95-23.02 115.95-23.23L115.95-23.23 115.95-23.7Q115.95-25.73 118.35-26.71L118.35-26.71Q118.76-26.82 119.1-26.82ZM148.18-26.82L148.18-26.82 148.68-26.82Q150.4-26.82 151.54-24.91L151.54-24.91Q151.86-24.29 151.86-23.43L151.86-23.43 151.86-3.22Q151.86-1.03 149.28-0.06L149.28-0.06Q148.98 0 148.79 0L148.79 0 148.03 0Q146.27 0 145.17-2.06L145.17-2.06Q144.94-2.6 144.94-3.01L144.94-3.01 144.94-23.7Q144.94-25.73 147.41-26.71L147.41-26.71Q147.82-26.82 148.18-26.82ZM156.87-26.82L156.87-26.82 177.8-26.82Q179.52-26.82 180.64-24.82L180.64-24.82Q180.85-24.2 180.85-23.86L180.85-23.86 180.85-23.12Q180.85-21.51 178.83-20.42L178.83-20.42Q178.18-20.16 177.6-20.16L177.6-20.16 160.47-20.16 160.47-16.74 173.91-16.74Q176.32-16.74 177.22-14.25L177.22-14.25Q177.33-13.86 177.33-13.52L177.33-13.52 177.33-13.3Q177.33-11.09 174.77-10.14L174.77-10.14 174.23-10.08 160.47-10.08 160.47-3.22Q160.47-1.03 157.94-0.06L157.94-0.06Q157.66 0 157.47 0L157.47 0 156.72 0Q155.02 0 153.94-2.06L153.94-2.06Q153.73-2.6 153.73-3.01L153.73-3.01 153.73-23.7Q153.73-25.73 156.13-26.71L156.13-26.71Q156.54-26.82 156.87-26.82ZM205.54-26.82L205.54-26.82 206.12-26.82Q208.19-26.82 209.46-23.51L209.46-23.51Q219.06-4.6 219.34-3.85L219.34-3.85 219.34-2.84Q219.34-1.14 217.1-0.11L217.1-0.11Q216.61 0 216.31 0L216.31 0 215.82 0Q213.73 0 212.44-3.42L212.44-3.42Q205.84-16.48 205.74-16.55L205.74-16.55Q198.36-1.7 197.94-1.1L197.94-1.1Q196.84 0 195.66 0L195.66 0 195.2 0Q193.49 0 192.39-2.06L192.39-2.06Q192.22-2.66 192.22-3.01L192.22-3.01 192.22-3.42Q192.22-4.17 194.13-7.74L194.13-7.74 203.14-25.55Q204.21-26.82 205.54-26.82ZM224.45-26.82L224.45-26.82 224.95-26.82Q226.67-26.82 227.81-24.91L227.81-24.91Q228.13-24.29 228.13-23.43L228.13-23.43 228.13-3.22Q228.13-1.03 225.55-0.06L225.55-0.06Q225.25 0 225.06 0L225.06 0 224.3 0Q222.54 0 221.43-2.06L221.43-2.06Q221.21-2.6 221.21-3.01L221.21-3.01 221.21-23.7Q221.21-25.73 223.68-26.71L223.68-26.71Q224.09-26.82 224.45-26.82Z" transform="translate(0, 26.81999969482422)"/>
            </g>
          </g>
        </g>
      </g>
    </g>
  </g>
  <defs v-gra="od"/>
</svg>
